<svg width="34" height="53" viewBox="0 0 34 53" fill="none" xmlns="http://www.w3.org/2000/svg">
<path d="M20.1485 0C20.1485 0.0782972 20.1537 0.151376 20.1537 0.229673C20.1537 2.75084 20.1537 5.27723 20.1537 7.7984C20.1537 8.01067 20.051 8.11681 19.8457 8.11681C18.1493 8.11681 16.4581 8.11681 14.7616 8.11681C13.2374 8.11681 11.8594 8.5605 10.6641 9.5105C9.23385 10.6432 8.4039 12.1204 8.18466 13.9421C8.14812 14.2344 8.14813 14.5267 8.14813 14.8191C8.14813 16.0875 8.14813 17.3559 8.14813 18.6243C8.14813 18.8801 8.14813 18.8801 8.4039 18.8801C11.4001 18.8801 14.3962 18.8644 17.3872 18.8853C20.2059 18.9062 22.8158 19.6944 25.2013 21.1872C27.3988 22.56 29.137 24.387 30.4106 26.6471C31.4024 28.4114 32.0183 30.301 32.248 32.3159C32.3263 33.0153 32.3576 33.7096 32.3576 34.4142C32.3576 36.1159 32.3576 37.8176 32.3576 39.5192C32.3576 39.7176 32.2619 39.8167 32.0705 39.8167C29.5389 39.8167 27.0125 39.8167 24.4809 39.8167C24.2095 39.8167 24.2043 39.8167 24.2043 39.5401C24.2043 37.6244 24.2304 35.7035 24.1938 33.7878C24.1625 32.0601 23.5048 30.562 22.3408 29.2936C21.1455 27.9991 19.6526 27.2579 17.8987 27.0543C17.6377 27.023 17.3768 27.0125 17.1158 27.0125C14.2188 27.0125 11.3166 27.0125 8.41956 27.0125C8.23861 27.0125 8.14813 27.1048 8.14813 27.2892C8.14813 31.3189 8.14813 35.3434 8.14813 39.3731C8.14813 39.4357 8.14813 39.4983 8.14813 39.5662C8.14813 39.822 8.14813 39.8272 7.89235 39.8272C7.56351 39.8272 7.22944 39.8272 6.90059 39.8272C4.69783 39.8272 2.48985 39.8272 0.287091 39.8272C0.193135 39.8272 0.0939566 39.822 0 39.8167C0 31.2145 0 22.6122 0 14.0048C0.0365387 13.655 0.0626362 13.3105 0.104395 12.9608C0.287088 11.3583 0.725555 9.82891 1.41979 8.3778C2.43765 6.24812 3.88354 4.46294 5.75745 3.02749C7.69922 1.53985 9.88111 0.595059 12.2927 0.187914C12.7572 0.109616 13.227 0.0730776 13.6916 0.0104399C15.8474 0.0104399 17.9979 0.0104399 20.1537 0.0104399L20.1485 0Z" fill="white"/>
<path d="M33.1151 12.6521C32.7183 12.6521 32.3269 12.6625 31.9302 12.6625C30.9436 12.6625 29.9571 12.6677 28.9705 12.6625C26.6999 12.6469 24.7686 10.9087 24.4971 8.65893C24.4763 8.48146 24.4658 8.30399 24.4658 8.12651C24.4658 6.84766 24.4658 5.56359 24.4658 4.28473C24.4658 4.0916 24.518 4.03418 24.7164 4.03418C25.9952 4.0394 27.2793 4.03418 28.5582 4.03418C30.6617 4.03418 32.4835 5.47485 32.9846 7.52101C33.0681 7.86552 33.0837 8.21003 33.1255 8.55976V12.6521H33.1151Z" fill="white"/>
<path d="M8.37226 52.6474C8.13737 52.6004 7.89726 52.5743 7.66759 52.4908C6.99423 52.2455 6.61319 51.6974 6.60797 50.9457C6.60275 50.1784 6.95247 49.6564 7.62583 49.3798C8.18435 49.1553 8.77941 49.1292 9.36403 49.0457C9.58326 49.0144 9.80249 48.9778 10.0217 48.9204C10.2253 48.8682 10.3819 48.7482 10.3975 48.5133C10.4184 48.2419 10.4184 47.9548 10.1261 47.8138C9.70853 47.6103 9.27529 47.6155 8.84726 47.7773C8.60715 47.8712 8.47144 48.0853 8.42968 48.3358C8.40358 48.4768 8.34616 48.5289 8.20523 48.5289C7.8033 48.5237 7.40138 48.5237 6.99945 48.5289C6.81676 48.5289 6.78544 48.4559 6.81154 48.2941C6.92638 47.5476 7.35962 47.0726 8.04863 46.8273C9.07172 46.4619 10.1 46.4619 11.1127 46.8429C11.7077 47.0674 12.0157 47.5267 12.0157 48.174C12.0157 49.124 12.0157 50.074 12.0157 51.024C12.0157 51.4781 12.0157 51.927 12.1671 52.3655C12.2036 52.4647 12.1514 52.496 12.0679 52.496C11.6138 52.496 11.1649 52.496 10.7107 52.496C10.6324 52.496 10.5802 52.4543 10.5594 52.376C10.5489 52.329 10.5333 52.2768 10.5228 52.2298C10.4654 51.9897 10.4706 51.9949 10.2671 52.1463C9.89645 52.4282 9.46843 52.5639 9.0143 52.6213C8.95166 52.6265 8.88381 52.6213 8.82639 52.6526H8.36704L8.37226 52.6474ZM10.4028 50.2671C10.4028 50.121 10.4028 50.0114 10.4028 49.907C10.4028 49.7765 10.3506 49.7556 10.2357 49.7974C10.0165 49.8809 9.78161 49.9174 9.54672 49.954C9.21265 50.0062 8.87858 50.0479 8.57061 50.2045C8.25743 50.3663 8.20001 50.6378 8.2261 50.9457C8.2522 51.2276 8.41402 51.3998 8.67501 51.4781C8.96732 51.5669 9.26485 51.5564 9.56238 51.5042C9.99563 51.4207 10.2514 51.1493 10.3558 50.7265C10.3975 50.5647 10.3923 50.3976 10.3975 50.2724L10.4028 50.2671Z" fill="white"/>
<path d="M15.3724 52.6477C15.0696 52.6007 14.7669 52.5798 14.4693 52.4963C13.5976 52.2562 13.0496 51.6403 12.9399 50.7894C12.9191 50.6381 12.9556 50.5754 13.1122 50.5807C13.4985 50.5807 13.8899 50.5807 14.2762 50.5807C14.3597 50.5807 14.4485 50.5807 14.4589 50.7007C14.5111 51.1966 14.8452 51.4158 15.2784 51.5046C15.6229 51.5776 15.9726 51.5672 16.3015 51.3949C16.5312 51.2749 16.646 51.0922 16.6512 50.8469C16.6512 50.5963 16.4842 50.4554 16.2754 50.3614C15.8422 50.1683 15.3776 50.0795 14.9182 49.9804C14.5581 49.9021 14.1979 49.8081 13.8691 49.6411C13.2114 49.3122 12.9608 48.8111 13.0809 48.0908C13.1853 47.4644 13.5298 47.026 14.1301 46.8172C15.1479 46.4622 16.1658 46.4518 17.1575 46.9216C17.7004 47.1826 17.9823 47.6367 18.0867 48.2213C18.1128 48.3727 18.071 48.451 17.904 48.4458C17.5229 48.4405 17.1419 48.4458 16.7556 48.4458C16.646 48.4458 16.5729 48.4092 16.5521 48.2944C16.4946 47.9603 16.2702 47.788 15.9622 47.7202C15.6542 47.6523 15.3411 47.6471 15.0331 47.7306C14.7982 47.7933 14.6938 47.929 14.6781 48.1273C14.6573 48.3518 14.7512 48.5032 14.9548 48.6023C15.3567 48.8059 15.8056 48.8686 16.2389 48.9677C16.7347 49.0773 17.215 49.2131 17.6534 49.4793C18.1337 49.7664 18.2798 50.2048 18.2589 50.732C18.2224 51.8021 17.5751 52.298 16.5625 52.5485C16.3485 52.6007 16.124 52.6216 15.9048 52.6581H15.3672L15.3724 52.6477Z" fill="white"/>
<path d="M1.91565 47.4269C2.2706 47.025 2.66731 46.7379 3.17363 46.6283C3.72693 46.5082 4.26457 46.5813 4.78133 46.8057C5.12062 46.9519 5.32419 47.239 5.47035 47.5678C5.63216 47.9489 5.70002 48.3508 5.70524 48.7579C5.71046 49.9324 5.70524 51.1016 5.71046 52.2761C5.71046 52.4431 5.65826 52.5058 5.49123 52.5006C5.09452 52.4953 4.70304 52.4901 4.30633 52.5006C4.13408 52.5006 4.0871 52.4327 4.09232 52.2709C4.09232 51.206 4.09232 50.1412 4.09232 49.0764C4.09232 48.8832 4.061 48.6953 4.01402 48.5126C3.88353 47.9959 3.52336 47.8393 3.05358 47.8549C2.21841 47.8862 1.95741 48.3926 1.93653 49.1808C1.90522 50.1777 1.9261 51.1799 1.9261 52.1821C1.9261 52.3909 1.81996 52.4953 1.60769 52.4953C1.2423 52.4953 0.882132 52.4953 0.516745 52.4953C0.36537 52.4953 0.302734 52.4431 0.302734 52.2865C0.302734 49.7758 0.302734 47.2651 0.302734 44.7544C0.302734 44.5978 0.354933 44.5351 0.511528 44.5403C0.908233 44.5456 1.29972 44.5508 1.69642 44.5403C1.8739 44.5403 1.9261 44.603 1.9261 44.7752C1.92088 45.5895 1.9261 46.409 1.9261 47.2233C1.9261 47.2912 1.9261 47.359 1.9261 47.4269H1.91565Z" fill="white"/>
<path d="M20.801 47.4475C21.0098 47.1447 21.2812 46.9151 21.6101 46.7689C22.3095 46.4557 23.009 46.5131 23.6771 46.842C24.1939 47.0977 24.3661 47.6041 24.4705 48.1261C24.528 48.4236 24.5488 48.7316 24.5488 49.0395C24.5488 50.1044 24.5488 51.1692 24.5488 52.234C24.5488 52.4898 24.5332 52.5003 24.2774 52.5003C23.9016 52.5003 23.5258 52.5003 23.1499 52.5003C22.9829 52.5003 22.9307 52.4428 22.9307 52.2758C22.9359 51.2684 22.9307 50.261 22.9307 49.2535C22.9307 49.003 22.915 48.7577 22.8472 48.5175C22.701 47.9903 22.3774 47.8337 21.8711 47.8546C21.1038 47.8859 20.801 48.3296 20.7749 49.1022C20.7384 50.0783 20.7645 51.0491 20.7593 52.0252C20.7593 52.1035 20.754 52.1766 20.7593 52.2549C20.7749 52.4376 20.6966 52.5003 20.5139 52.5003C20.1277 52.4898 19.7362 52.495 19.3499 52.5003C19.1933 52.5003 19.1411 52.4481 19.1411 52.2862C19.1411 49.7755 19.1411 47.2648 19.1411 44.7541C19.1411 44.5975 19.1933 44.54 19.3499 44.54C19.731 44.5453 20.112 44.54 20.4983 44.54C20.7436 44.54 20.7593 44.5557 20.7593 44.7958C20.7593 45.6049 20.7593 46.414 20.7593 47.223C20.7593 47.2909 20.7384 47.364 20.7958 47.4423L20.801 47.4475Z" fill="white"/>
<path d="M30.5882 49.4256C30.5882 49.8693 30.5829 50.3182 30.5882 50.7619C30.5986 51.1377 30.7291 51.2578 31.1101 51.263C31.2667 51.263 31.4286 51.263 31.5851 51.2525C31.6895 51.2421 31.7261 51.2786 31.7313 51.3726C31.7313 51.6962 31.7313 52.0251 31.7313 52.3487C31.7313 52.4479 31.6895 52.5001 31.5851 52.5105C31.0057 52.5575 30.4263 52.5993 29.8574 52.4374C29.2571 52.2704 28.97 51.8894 28.97 51.263C28.97 50.1981 28.9648 49.1333 28.97 48.0685C28.97 47.8753 28.9126 47.8022 28.7195 47.8179C28.5472 47.8336 28.375 47.8179 28.2027 47.8179C28.067 47.8179 28.0044 47.7657 28.0096 47.6248C28.0148 47.3847 28.0148 47.1393 28.0096 46.8992C28.0096 46.7531 28.0774 46.7113 28.2079 46.7113C28.4011 46.7113 28.589 46.7113 28.7821 46.7113C28.923 46.7113 28.97 46.6591 28.97 46.5182C28.9648 46.0849 28.97 45.6517 28.97 45.2184C28.97 45.0566 29.017 44.9888 29.184 44.9888C29.5807 44.994 29.9722 44.994 30.3689 44.9888C30.5412 44.9888 30.5882 45.0566 30.5882 45.2184C30.5829 45.6412 30.5882 46.0588 30.5882 46.4816C30.5882 46.6591 30.6508 46.7217 30.8231 46.7113C31.0632 46.7009 31.3085 46.7113 31.5486 46.7113C31.6843 46.7113 31.7417 46.7687 31.7417 46.9044C31.7417 47.1446 31.7417 47.3899 31.7417 47.63C31.7417 47.7605 31.6843 47.8127 31.5591 47.8127C31.3085 47.8127 31.0632 47.8179 30.8126 47.8127C30.6456 47.8075 30.5882 47.8701 30.5882 48.0371C30.5934 48.4965 30.5882 48.9558 30.5882 49.4152V49.4256Z" fill="white"/>
<path d="M27.3467 49.6205C27.3467 50.4974 27.3467 51.3796 27.3467 52.2565C27.3467 52.4392 27.2892 52.5018 27.1065 52.4966C26.7203 52.4862 26.3288 52.4914 25.9425 52.4966C25.7859 52.4966 25.7285 52.4392 25.7285 52.2826C25.7285 50.4974 25.7285 48.7175 25.7285 46.9323C25.7285 46.7757 25.7912 46.7183 25.9425 46.7183C26.3392 46.7235 26.7307 46.7235 27.1274 46.7183C27.2945 46.7183 27.3467 46.7809 27.3467 46.9427C27.3414 47.8353 27.3467 48.7279 27.3467 49.6205Z" fill="white"/>
<path d="M26.5532 45.8868C26.3445 45.8868 26.1304 45.8868 25.9217 45.8868C25.7964 45.8868 25.7285 45.8502 25.7285 45.7145C25.7285 45.3856 25.7285 45.0516 25.7285 44.7227C25.7285 44.5922 25.7912 44.54 25.9164 44.54C26.3392 44.54 26.7568 44.54 27.1796 44.54C27.2997 44.54 27.3519 44.5922 27.3467 44.7123C27.3467 45.0411 27.3467 45.3752 27.3467 45.7041C27.3467 45.8398 27.2892 45.8868 27.164 45.8815C26.9604 45.8815 26.7568 45.8815 26.5532 45.8815V45.8868Z" fill="white"/>
</svg>
